<svg xmlns="http://www.w3.org/2000/svg" viewBox="0 0 114 114">
  <defs>
    <style>
      .cls-1 {
        fill: #fff;
      }

      .cls-2 {
        fill: none;
      }
    </style>
  </defs>
  <g id="Symbol_14_1" data-name="Symbol 14 – 1" transform="translate(376 -253)">
    <g id="logo" transform="translate(-461.039 254)">
      <path id="Path_1263" data-name="Path 1263" class="cls-1" d="M235.3,94.956,232.331,91.5l-.708.681c-8.588,8.2-19.666,12.368-32.921,12.368a50.246,50.246,0,0,1-25.156-6.412A47.246,47.246,0,0,1,155.77,80.582a48.5,48.5,0,0,1-6.484-24.708,48.5,48.5,0,0,1,6.484-24.708,47.311,47.311,0,0,1,17.777-17.553A50.294,50.294,0,0,1,198.7,7.2c13.353,0,24.431,4.111,32.921,12.215l.708.681,4.567-5.355-.609-.609A45.782,45.782,0,0,0,219.534,3.564,60.724,60.724,0,0,0,198.6,0,58.3,58.3,0,0,0,169.66,7.281a53.888,53.888,0,0,0-20.428,20.025,55.859,55.859,0,0,0-7.442,28.559,55.859,55.859,0,0,0,7.442,28.559,53.784,53.784,0,0,0,20.428,20.034,58.39,58.39,0,0,0,28.936,7.281,59.854,59.854,0,0,0,20.867-3.636,46.412,46.412,0,0,0,16.828-10.639l.609-.609-1.612-1.881Z" transform="translate(-56.593 0)"/>
      <g id="Group_1538" data-name="Group 1538" transform="translate(101.828 15.807)">
        <path id="Path_1264" data-name="Path 1264" class="cls-1" d="M178.719,37.585a3.389,3.389,0,0,1,6.081-.439l21.162,36.566,11.606-27.906a3.383,3.383,0,0,1,6.054-.394l11.956,20.7h4.03a40.067,40.067,0,1,0-78.361,0h6.1Z" transform="translate(-160.36 -17.65)"/>
        <path id="Path_1265" data-name="Path 1265" class="cls-1" d="M231.035,74.55l-9.511-16.46L209.927,86a3.373,3.373,0,0,1-2.9,2.078,1.872,1.872,0,0,1-.224.009,3.377,3.377,0,0,1-2.928-1.693l-21.1-36.449-9.645,24.171a3.375,3.375,0,0,1-3.143,2.131h-6.3a40.063,40.063,0,0,0,74.17,0h-3.887A3.4,3.4,0,0,1,231.035,74.55Z" transform="translate(-160.707 -21.022)"/>
      </g>
    </g>
    <circle id="Ellipse_16" data-name="Ellipse 16" class="cls-2" cx="57" cy="57" r="57" transform="translate(-376 253)"/>
  </g>
</svg>
