<?xml version="1.0" encoding="utf-8"?>
<!-- Generator: Adobe Illustrator 23.0.3, SVG Export Plug-In . SVG Version: 6.00 Build 0)  -->
<svg version="1.1" id="Layer_1" xmlns="http://www.w3.org/2000/svg" xmlns:xlink="http://www.w3.org/1999/xlink" x="0px" y="0px"
	 viewBox="0 0 114 114" style="enable-background:new 0 0 114 114;" xml:space="preserve">
<style type="text/css">
	.st0{fill:#FFFFFF;}
</style>
<g id="Symbol_14_1" transform="translate(376 -253)">
	<g id="logo" transform="translate(-461.039 254)">
		<g id="Group_1538" transform="translate(101.828 15.807)">
			<path id="Path_1264" class="st0" d="M9.4,11.6c1-2.5,3.8-3.7,6.2-2.7c1,0.4,1.8,1.1,2.4,2.1l29.9,51.7l16.4-39.5
				c1-2.4,3.8-3.6,6.3-2.6c1,0.4,1.8,1.1,2.3,2L89.9,52h5.7c6.6-30.6-13-60.8-43.6-67.3s-60.8,13-67.3,43.6
				c-1.7,7.8-1.7,15.9,0,23.7h8.6L9.4,11.6z"/>
			<path id="Path_1265" class="st0" d="M82.9,59.1L69.5,35.8L53.1,75.3c-0.7,1.7-2.3,2.8-4.1,2.9c-0.1,0-0.2,0-0.3,0
				c-1.7,0-3.3-0.9-4.1-2.4L14.6,24.3L1,58.5c-0.7,1.8-2.5,3-4.4,3h-8.9c11.8,29,44.9,42.9,73.9,31c14.1-5.8,25.3-16.9,31-31h-5.5
				C85.4,61.5,83.8,60.6,82.9,59.1z"/>
		</g>
	</g>
</g>
</svg>
